<svg enable-background="new 0 0 423 101" fill="#ffffff" viewBox="0 0 423 101" xmlns="http://www.w3.org/2000/svg">
    <title>Filson - Since 1897</title>
    <g>
        <path d="m302.6 53.6c-10.4 0-17.9-8.9-17.9-23.1s7.5-23.1 17.9-23.1 17.9 8.9 17.9 23.1c-.1 14.2-7.6 23.1-17.9 23.1m0-51.5c-27.9 0-34.2 16.9-34.2 28.4 0 11.6 6.3 28.4 34.2 28.4s34.2-16.8 34.2-28.4c-.1-11.5-6.3-28.4-34.2-28.4"></path>
        <path d="m112.5 14.2c.3-3.4-.3-7.3 7.5-8 .5 0 .8-.5.8-.8v-1.1c0-.2-.1-.5-.2-.6s-.3-.2-.6-.2c-.5 0-1.4.1-2.4.1h-.6c-4 .2-9.5.7-12.2.7s-13.2-.8-15.3-.9c-.5 0-.9.3-.9.8v1.1c0 .5.3.8.8.8 6.3.6 7.1 3.4 7.5 8 .1 1.7.2 3.9.2 6.5v19.6c0 2.6-.1 4.8-.2 6.5-.5 4.8-1.4 7.4-7.5 8-.5 0-.8.5-.8.8v1.1c0 .2.2.9.9.8.7 0 12.4-.9 15.3-.9 3.1 0 13.8.8 15.4.9.5 0 .8-.3.8-.8v-1.1c0-.5-.3-.8-.8-.8-5.8-.5-7.1-3.1-7.5-8-.1-1.7-.2-3.9-.2-6.5v-19.6c-.3-2.5-.1-4.7 0-6.4"></path>
        <path d="m72.8 3.9c-1.6 0-3.9.1-3.9.1-1.7 0-25.3.5-25.3.5-3.8.1-9.8-.1-13.4-.1s-10.5-.6-15.3-.9c-.6 0-.9.5-.9.8v1.1c0 .5.3.8.8.8 6.2.5 7.1 3.4 7.5 8 .1 1.7.2 3.9.2 6.5v19.6c0 2.6-.1 4.8-.2 6.5-.5 5.4-2.1 7.5-7.5 8-.5 0-.8.5-.8.8v1.1c0 .5.5.9.9.8 1.5-.1 11.7-.9 15.3-.9 3 0 12.2.7 15.3.9.5 0 .9-.5.9-.8v-1.1c0-.5-.3-.8-.8-.8-6.8-.6-7.1-3.6-7.5-8-.1-1.7-.2-3.4-.2-6 0-1.8 0-2.7 0-3.8 0-1.8.7-2.8 3.6-2.8 5.9.1 12.9 2.1 13.2 7.9 0 .7.2 1 1.7.9 1-.1.9-.3.9-1.4-.2-4.1-.5-6-.5-9.7 0-3.4.2-5.4.5-9.5.1-.9-.1-1.3-.9-1.4-1.5-.1-1.7.2-1.7.9-.3 6-7.5 7.9-13.6 7.9-1.6 0-3.3-.3-3.3-2.7 0-5.8 0-7.7.2-13.1 0-1.6 0-3.3 1.3-4.1 1-.7 3.5-.9 4.9-.9 17.7-.7 26.4 7.5 26.7 12.1l.1 1.6c0 .6.6.8 1 .8h1c.6 0 .8-.3.8-.8 0-.3 0-.8 0-1.3.1-2.4.2-12.1.2-15.3.1-.6.3-2.2-1.2-2.2"></path>
        <path d="m409 4.3v1.1c0 .5-.3.8-.8.8-7.2.6-7.2 4.2-7.5 8-.1 1.7-.2 3.9-.2 6.5v35.9c0 1-.7 1.3-1.7.5 0 0-36-30.4-41.5-34.9-.1-.1-.8-.6-.8.3v17.7c0 2.6.1 4.8.2 6.5.5 5.2 2.1 7.5 7.5 8 .5 0 .8.5.8.8v1.1c0 .5-.5.8-.9.8-2.1 0-6.8-.9-10.1-.9-2.8 0-7.4.8-10.1.9-.5 0-.9-.3-.9-.8v-1.1c0-.5.3-.8.8-.8 6.2-.5 7.1-3.1 7.5-8 .1-1.7.2-3.9.2-6.5v-19.5c0-2.6-.1-4.8-.2-6.5-.5-4.6-1.1-7.5-7.5-8-.5 0-.8-.5-.8-.8v-1.1c0-.5.3-.9.9-.8 1.9.1 2.8.3 5 .3 2.8 0 6-.1 8.5-.1 1 0 1.5.2 2.2.8l34.6 29.1c.8.6 1.1.2 1.1-.2v-12.5c0-2.6-.1-4.8-.2-6.5-.3-3.8 0-7.4-7.5-8-.5 0-.8-.5-.8-.8v-1.1c0-.7.5-.9.9-.8 3.6.2 8.2.9 11.1.9 3.2 0 5.6-.8 9.3-.9.6-.3.9.1.9.6z"></path>
        <path d="m192.6 38.4c0-.7-.2-.8-.8-.8-.2 0-1 0-1.3 0-.2 0-.6.2-.6.6-1.4 9-4.6 12-15 13-3.5.3-3.9.5-7.4.3-5.1-.1-7.5-1.3-7.4-10v-20.9c0-2.6.1-4.8.2-6.5.5-4.6 1.1-7.4 7.5-8 .5 0 .8-.5.8-.8v-1.1c0-.2-.3-.9-.9-.8-1.4.2-11.4.9-15 .9-3.3 0-12.7-.8-15.3-.9-.5 0-.9.3-.9.8v1.1c0 .5.3.8.8.8 6.7.6 7.1 3.8 7.5 8 .1 1.7.2 3.9.2 6.5v20.7c0 2.6-.1 4.8-.2 6.5-.5 4.7-1.1 6.3-7.5 6.8-.5 0-.8.5-.8.8v1.1c0 .5.6.9.9.8 11.1-.7 16.1-1 28.5-1 9.9 0 15.2.1 23.9.9 1.4.1 2.5-.2 2.5-2.2-.2-4-.2-7 .3-16.6z"></path>
        <path d="m235.3 23.3c-17.4-2.7-25.2-4.6-25.2-9.2 0-2.8 4.2-5.8 15-5.8 7.6 0 16 2.1 20.2 6.7.9 1 1.5 2.3 2.1 3.1.5.7.8.9 1.5.9.5 0 1.1 0 1.6-.1.8-.2.9-.6.9-1.4-.5-4.1-.6-6.8.1-10.3.1-.8.3-1.4-1.3-2.1-1.8-.8-5.7-1.4-11.5-2.1-4.6-.5-8.5-.7-11.7-.7-6 0-11.3 1-15.4 3-7.1 3.2-10.3 8.4-10.3 13.9 0 9.2 8.5 13.6 15.5 15.2 7.9 1.8 17.4 1.9 23.7 5.4 5.7 3.2 4.7 7.9.5 10.7-5.7 3.6-17.4 4.9-25.8 0-3-1.7-7.1-5-8.7-9.3-.7-1.7-1.5-3.4-2.2-3.9-.7-.3-1.6-.5-2.2-.3-.6.1-.8.5-.8 1.1.2 1.9 1.1 6.7-.5 11.5-.2.8-.3 1.1.3 1.8 2.7 2.7 14.6 7.2 27 7.2 12.9 0 19.9-4.4 23.9-8.2 6.3-6 7.9-14.2 1.8-19.9-2.8-2.7-6.4-5.2-18.5-7.2z"></path>
        <path d="m135.1 98.8c-3.2 0-5.9-1.4-7.4-3.4l2.7-2.4c1.4 1.6 3.1 2.2 4.9 2.2 2.3 0 3.3-.6 3.3-2.1 0-1.3-.7-1.8-4.2-2.6s-5.9-1.9-5.9-5.7c0-3.4 3.1-5.6 6.8-5.6 3 0 5.1 1.1 7 3l-2.7 2.6c-1.3-1.3-2.6-1.9-4.3-1.9-2.1 0-2.7.9-2.7 1.7 0 1.1.8 1.6 3.9 2.3 3 .7 6.4 1.7 6.4 5.9-.2 3.5-2.5 6-7.8 6z"></path>
        <path d="m149.3 98.4v-19h4.6v19z"></path>
        <path d="m173.2 98.4-7-10.4c-.5-.7-1.1-1.7-1.4-2.2v4.1 8.3h-3.8v-19h3.6l6.7 10c.5.7 1.1 1.7 1.4 2.2 0-.7 0-3.1 0-4.2v-8.1h3.8v19h-3.4v.3z"></path>
        <path d="m194.1 85c-.7-1.3-1.7-2.1-3.5-2.1-2.8 0-4.4 2.5-4.4 6 0 3.4 1.7 6 4.6 6 1.7 0 2.7-.7 3.8-2.4l3.2 1.9c-1.3 2.7-3.5 4.3-7.1 4.3-5 0-8.3-3.8-8.3-9.8 0-5.8 3.5-9.8 8.4-9.8 3.5 0 5.8 1.7 7 4.2z"></path>
        <path d="m203.1 98.4v-19h13.2v3.8h-9.5v3.6h5.5v3.6h-5.5v4.2h9.8v3.8z"></path>
        <path d="m289.1 98.4h-4.2l5.8-15.3h-7v-3.8h11.4v3.2z"></path>
        <path d="m272.9 79c-1.9 0-3.8.7-5.1 2.1-1.3 1.3-1.8 3-1.8 4.6 0 4 2.8 6.4 6.7 6.4.3 0 .7 0 1-.1-.3.7-.6 1.1-.8 1.7-.8 1.6-1.6 3.2-2.4 4.8h4.2c.8-1.4 2.3-4.9 3.4-7.4 1-2.5 1.5-3.8 1.5-5.2.1-4.2-2.8-6.9-6.7-6.9zm-.3 3.5c1.8 0 3.1 1.4 3.1 3.2 0 .9-.3 1.7-.8 2.3-.7.7-1.4.9-2.3.9-1.8 0-3.1-1.4-3.1-3.2.1-1.8 1.3-3.2 3.1-3.2z"></path>
        <path d="m255.4 98.5c-3.4 0-6.3-2.1-6.3-5.4 0-2.4 1.5-4.2 3.4-4.9-1.8-.7-2.7-2.3-2.7-4.1 0-2.7 2.2-5.2 5.8-5.2 3.4 0 5.6 2.3 5.6 4.9 0 1.9-1 3.5-2.7 4.2 2.2.6 3.4 2.4 3.4 4.7 0 3.4-2.6 5.8-6.5 5.8zm0-7.8c-1.3 0-2.5.8-2.5 2.5 0 1.4 1 2.3 2.5 2.3 1.4 0 2.5-1 2.5-2.4 0-1.6-1.2-2.4-2.5-2.4zm.1-8.7c-1.5 0-2.3 1-2.3 2.3 0 1.4 1.1 2.2 2.3 2.2 1.1 0 2.2-.7 2.2-2.3 0-1.2-.8-2.2-2.2-2.2z"></path>
        <path d="m239.3 98.4v-13.8h-3.2v-2.8c1 0 3.8-1.9 3.8-2.5h3.5v19z"></path>
    </g>
</svg>